<svg width="21" height="21" viewBox="0 0 21 21" fill="none" xmlns="http://www.w3.org/2000/svg">
<path d="M14.7777 17.8889C15.6368 17.8889 16.3333 17.1925 16.3333 16.3334C16.3333 15.4743 15.6368 14.7778 14.7777 14.7778C13.9186 14.7778 13.2221 15.4743 13.2221 16.3334C13.2221 17.1925 13.9186 17.8889 14.7777 17.8889Z" fill="#7E7E7E"/>
<path d="M20.8265 15.9282C20.346 14.7039 19.5167 13.6475 18.4415 12.89C17.3663 12.1325 16.0924 11.7072 14.7778 11.6667C13.4631 11.7072 12.1893 12.1325 11.114 12.89C10.0388 13.6475 9.20955 14.7039 8.72898 15.9282L8.55553 16.3334L8.72898 16.7394C9.20967 17.9636 10.039 19.0198 11.1142 19.7771C12.1894 20.5345 13.4632 20.9597 14.7778 21.0001C16.0923 20.9597 17.3661 20.5345 18.4413 19.7771C19.5165 19.0198 20.3458 17.9636 20.8265 16.7394L21 16.3334L20.8265 15.9282ZM14.7778 19.4445C14.1624 19.4445 13.5609 19.2621 13.0493 18.9202C12.5377 18.5784 12.1389 18.0925 11.9035 17.524C11.668 16.9555 11.6064 16.33 11.7264 15.7265C11.8465 15.123 12.1428 14.5686 12.5779 14.1335C13.013 13.6984 13.5673 13.4021 14.1708 13.2821C14.7743 13.162 15.3998 13.2237 15.9683 13.4591C16.5368 13.6946 17.0227 14.0934 17.3646 14.605C17.7064 15.1166 17.8889 15.7181 17.8889 16.3334C17.8878 17.1582 17.5597 17.9489 16.9765 18.5322C16.3933 19.1154 15.6026 19.4435 14.7778 19.4445Z" fill="#7E7E7E"/>
<path d="M3.88903 4.66664C4.31858 4.66664 4.66681 4.31842 4.66681 3.88886C4.66681 3.45931 4.31858 3.11108 3.88903 3.11108C3.45947 3.11108 3.11125 3.45931 3.11125 3.88886C3.11125 4.31842 3.45947 4.66664 3.88903 4.66664Z" fill="#7E7E7E"/>
<path d="M3.88903 10.8888C4.31858 10.8888 4.66681 10.5406 4.66681 10.111C4.66681 9.68147 4.31858 9.33325 3.88903 9.33325C3.45947 9.33325 3.11125 9.68147 3.11125 10.111C3.11125 10.5406 3.45947 10.8888 3.88903 10.8888Z" fill="#7E7E7E"/>
<path d="M3.88903 17.111C4.31858 17.111 4.66681 16.7628 4.66681 16.3332C4.66681 15.9036 4.31858 15.5554 3.88903 15.5554C3.45947 15.5554 3.11125 15.9036 3.11125 16.3332C3.11125 16.7628 3.45947 17.111 3.88903 17.111Z" fill="#7E7E7E"/>
<path d="M1.55556 14H7V12.4444H1.55556V7.77778H14V10.1111H15.5556V1.55556C15.5556 1.143 15.3917 0.747335 15.0999 0.455612C14.8082 0.163888 14.4126 0 14 0H1.55556C1.143 0 0.747335 0.163888 0.455612 0.455612C0.163888 0.747335 0 1.143 0 1.55556V18.6667C0 19.0792 0.163888 19.4749 0.455612 19.7666C0.747335 20.0583 1.143 20.2222 1.55556 20.2222H7V18.6667H1.55556V14ZM1.55556 1.55556H14V6.22222H1.55556V1.55556Z" fill="#7E7E7E"/>
</svg>
