<svg width="40" height="40" viewBox="0 0 40 40" fill="none" xmlns="http://www.w3.org/2000/svg">
<path fill-rule="evenodd" clip-rule="evenodd" d="M20 2.19747e-10C22.6264 -1.23112e-05 25.2271 0.517293 27.6536 1.52238C30.0802 2.52747 32.2849 4.00065 34.1421 5.85782C35.9993 7.71499 37.4725 9.91977 38.4776 12.3463C39.4827 14.7728 40 17.3735 40 20C40 31.0457 31.0457 40 20 40C8.95434 40 0 31.0457 0 20C0 8.95434 8.95434 2.19747e-10 20 2.19747e-10ZM22 22H18C13.0486 22 8.79768 24.9988 6.96421 29.2795C9.86521 33.3474 14.6228 36 20 36C25.3771 36 30.1347 33.3474 33.0358 29.2792C31.2023 24.9988 26.9514 22 22 22ZM20 6C16.6863 6 14 8.68631 14 12C14 15.3137 16.6863 18 20 18C23.3136 18 25.9999 15.3137 25.9999 12C25.9999 8.68631 23.3137 6 20 6Z" fill="#064ECC"/>
</svg>
