<svg width="21" height="21" viewBox="0 0 21 21" fill="none" xmlns="http://www.w3.org/2000/svg">
<path d="M7.35 16.8H13.125C13.4225 16.8 13.6981 16.7256 13.9519 16.5769C14.2056 16.4281 14.385 16.2225 14.49 15.96L16.695 10.815C16.73 10.7275 16.7563 10.64 16.7738 10.5525C16.7913 10.465 16.8 10.3775 16.8 10.29V9.45C16.8 9.1525 16.6994 8.90313 16.4981 8.70188C16.2969 8.50063 16.0475 8.4 15.75 8.4H10.92L11.55 4.83C11.585 4.655 11.5763 4.48875 11.5238 4.33125C11.4713 4.17375 11.3838 4.03375 11.2613 3.91125L10.5 3.15L5.67 8.4C5.53 8.54 5.425 8.6975 5.355 8.8725C5.285 9.0475 5.25 9.24 5.25 9.45V14.7C5.25 15.2775 5.45563 15.7719 5.86688 16.1831C6.27813 16.5944 6.7725 16.8 7.35 16.8ZM10.5 21C9.0475 21 7.6825 20.7244 6.405 20.1731C5.1275 19.6219 4.01625 18.8738 3.07125 17.9288C2.12625 16.9838 1.37813 15.8725 0.826875 14.595C0.275625 13.3175 0 11.9525 0 10.5C0 9.0475 0.275625 7.6825 0.826875 6.405C1.37813 5.1275 2.12625 4.01625 3.07125 3.07125C4.01625 2.12625 5.1275 1.37813 6.405 0.826875C7.6825 0.275625 9.0475 0 10.5 0C11.9525 0 13.3175 0.275625 14.595 0.826875C15.8725 1.37813 16.9838 2.12625 17.9288 3.07125C18.8738 4.01625 19.6219 5.1275 20.1731 6.405C20.7244 7.6825 21 9.0475 21 10.5C21 11.9525 20.7244 13.3175 20.1731 14.595C19.6219 15.8725 18.8738 16.9838 17.9288 17.9288C16.9838 18.8738 15.8725 19.6219 14.595 20.1731C13.3175 20.7244 11.9525 21 10.5 21ZM10.5 18.9C12.845 18.9 14.8313 18.0863 16.4588 16.4588C18.0863 14.8313 18.9 12.845 18.9 10.5C18.9 8.155 18.0863 6.16875 16.4588 4.54125C14.8313 2.91375 12.845 2.1 10.5 2.1C8.155 2.1 6.16875 2.91375 4.54125 4.54125C2.91375 6.16875 2.1 8.155 2.1 10.5C2.1 12.845 2.91375 14.8313 4.54125 16.4588C6.16875 18.0863 8.155 18.9 10.5 18.9Z" fill="#7E7E7E"/>
</svg>
