<svg width="162" height="40" viewBox="0 0 162 40" fill="none" xmlns="http://www.w3.org/2000/svg">
<path d="M10 40V30H0V22H12.9L16.3 27.1C16.4667 27.3667 16.7 27.5833 17 27.75C17.3 27.9167 17.6167 28 17.95 28C18.3833 28 18.7833 27.8667 19.15 27.6C19.5167 27.3333 19.7667 27 19.9 26.6L22.6 18.5L24.3 21.1C24.5 21.3667 24.75 21.5833 25.05 21.75C25.35 21.9167 25.6667 22 26 22H40V30H30V40H10ZM17.4 21.5L15.65 18.9C15.4833 18.6333 15.25 18.4167 14.95 18.25C14.65 18.0833 14.3333 18 14 18H0V10H10V0H30V10H40V18H27.05L23.65 12.9C23.4833 12.6333 23.25 12.4167 22.95 12.25C22.65 12.0833 22.3333 12 22 12C21.5667 12 21.175 12.1333 20.825 12.4C20.475 12.6667 20.2333 13 20.1 13.4L17.4 21.5Z" fill="#064ECC"/>
<path d="M57.016 30.196C54.72 30.196 52.8347 29.6547 51.36 28.572C49.8853 27.4707 49.092 25.9027 48.98 23.868H54.832C54.888 24.5587 55.0933 25.0627 55.448 25.38C55.8027 25.6973 56.26 25.856 56.82 25.856C57.324 25.856 57.7347 25.7347 58.052 25.492C58.388 25.2307 58.556 24.876 58.556 24.428C58.556 23.8493 58.2853 23.4013 57.744 23.084C57.2027 22.7667 56.3253 22.412 55.112 22.02C53.824 21.5907 52.7787 21.18 51.976 20.788C51.192 20.3773 50.5013 19.7893 49.904 19.024C49.3253 18.24 49.036 17.2227 49.036 15.972C49.036 14.7027 49.3533 13.62 49.988 12.724C50.6227 11.8093 51.5 11.1187 52.62 10.652C53.74 10.1853 55.0093 9.952 56.428 9.952C58.724 9.952 60.5533 10.4933 61.916 11.576C63.2973 12.64 64.0347 14.1427 64.128 16.084H58.164C58.1453 15.4867 57.9587 15.0387 57.604 14.74C57.268 14.4413 56.8293 14.292 56.288 14.292C55.8773 14.292 55.5413 14.4133 55.28 14.656C55.0187 14.8987 54.888 15.244 54.888 15.692C54.888 16.0653 55.028 16.392 55.308 16.672C55.6067 16.9333 55.9707 17.1667 56.4 17.372C56.8293 17.5587 57.464 17.8013 58.304 18.1C59.5547 18.5293 60.5813 18.9587 61.384 19.388C62.2053 19.7987 62.9053 20.3867 63.484 21.152C64.0813 21.8987 64.38 22.8507 64.38 24.008C64.38 25.184 64.0813 26.2387 63.484 27.172C62.9053 28.1053 62.056 28.8427 60.936 29.384C59.8347 29.9253 58.528 30.196 57.016 30.196ZM69.1033 12.836C68.1326 12.836 67.3486 12.5747 66.7513 12.052C66.1726 11.5107 65.8833 10.8387 65.8833 10.036C65.8833 9.21467 66.1726 8.53333 66.7513 7.992C67.3486 7.45067 68.1326 7.18 69.1033 7.18C70.0553 7.18 70.8206 7.45067 71.3993 7.992C71.9966 8.53333 72.2953 9.21467 72.2953 10.036C72.2953 10.8387 71.9966 11.5107 71.3993 12.052C70.8206 12.5747 70.0553 12.836 69.1033 12.836ZM71.8193 14.292V30H66.3313V14.292H71.8193ZM81.7926 30.196C79.4966 30.196 77.6112 29.6547 76.1366 28.572C74.6619 27.4707 73.8686 25.9027 73.7566 23.868H79.6086C79.6646 24.5587 79.8699 25.0627 80.2246 25.38C80.5792 25.6973 81.0366 25.856 81.5966 25.856C82.1006 25.856 82.5112 25.7347 82.8286 25.492C83.1646 25.2307 83.3326 24.876 83.3326 24.428C83.3326 23.8493 83.0619 23.4013 82.5206 23.084C81.9792 22.7667 81.1019 22.412 79.8886 22.02C78.6006 21.5907 77.5552 21.18 76.7526 20.788C75.9686 20.3773 75.2779 19.7893 74.6806 19.024C74.1019 18.24 73.8126 17.2227 73.8126 15.972C73.8126 14.7027 74.1299 13.62 74.7646 12.724C75.3992 11.8093 76.2766 11.1187 77.3966 10.652C78.5166 10.1853 79.7859 9.952 81.2046 9.952C83.5006 9.952 85.3299 10.4933 86.6926 11.576C88.0739 12.64 88.8112 14.1427 88.9046 16.084H82.9406C82.9219 15.4867 82.7352 15.0387 82.3806 14.74C82.0446 14.4413 81.6059 14.292 81.0646 14.292C80.6539 14.292 80.3179 14.4133 80.0566 14.656C79.7952 14.8987 79.6646 15.244 79.6646 15.692C79.6646 16.0653 79.8046 16.392 80.0846 16.672C80.3832 16.9333 80.7472 17.1667 81.1766 17.372C81.6059 17.5587 82.2406 17.8013 83.0806 18.1C84.3312 18.5293 85.3579 18.9587 86.1606 19.388C86.9819 19.7987 87.6819 20.3867 88.2606 21.152C88.8579 21.8987 89.1566 22.8507 89.1566 24.008C89.1566 25.184 88.8579 26.2387 88.2606 27.172C87.6819 28.1053 86.8326 28.8427 85.7126 29.384C84.6112 29.9253 83.3046 30.196 81.7926 30.196ZM96.5958 14.656V17.876H102.896V22.048H96.5958V25.604H103.736V30H91.1078V10.26H103.736V14.656H96.5958ZM123.516 10.26V30H118.028V22.076H111.336V30H105.848V10.26H111.336V17.68H118.028V10.26H123.516ZM138.544 26.78H131.544L130.48 30H124.712L131.908 10.26H138.236L145.404 30H139.608L138.544 26.78ZM137.172 22.58L135.044 16.196L132.944 22.58H137.172ZM161.461 10.26V14.628H156.197V30H150.709V14.628H145.501V10.26H161.461Z" fill="#064ECC"/>
</svg>
