<svg width="238" height="66" viewBox="0 0 238 66" fill="none" xmlns="http://www.w3.org/2000/svg">
<rect width="237.343" height="66" rx="16" fill="url(#paint0_linear_329_458)"/>
<path d="M30.6667 35.8335L26.5 31.6668L27.6667 30.4585L29.8333 32.6252V25.8335H31.5V32.6252L33.6667 30.4585L34.8333 31.6668L30.6667 35.8335ZM25.6667 39.1668C25.2083 39.1668 24.816 39.0036 24.4896 38.6772C24.1632 38.3509 24 37.9585 24 37.5002V35.0002H25.6667V37.5002H35.6667V35.0002H37.3333V37.5002C37.3333 37.9585 37.1701 38.3509 36.8438 38.6772C36.5174 39.0036 36.125 39.1668 35.6667 39.1668H25.6667Z" fill="white"/>
<path d="M77.6774 17.728V23.776C77.6774 24.4387 77.8501 24.9473 78.1954 25.302C78.5408 25.6473 79.0261 25.82 79.6514 25.82C80.2861 25.82 80.7761 25.6473 81.1214 25.302C81.4668 24.9473 81.6394 24.4387 81.6394 23.776V17.728H83.6134V23.762C83.6134 24.5927 83.4314 25.2973 83.0674 25.876C82.7128 26.4453 82.2321 26.8747 81.6254 27.164C81.0281 27.4533 80.3608 27.598 79.6234 27.598C78.8954 27.598 78.2328 27.4533 77.6354 27.164C77.0474 26.8747 76.5808 26.4453 76.2354 25.876C75.8901 25.2973 75.7174 24.5927 75.7174 23.762V17.728H77.6774ZM89.8051 19.632C90.7291 19.632 91.4758 19.926 92.0451 20.514C92.6145 21.0927 92.8991 21.9047 92.8991 22.95V27.5H90.9391V23.216C90.9391 22.6 90.7851 22.1287 90.4771 21.802C90.1691 21.466 89.7491 21.298 89.2171 21.298C88.6758 21.298 88.2465 21.466 87.9291 21.802C87.6211 22.1287 87.4671 22.6 87.4671 23.216V27.5H85.5071V19.744H87.4671V20.71C87.7285 20.374 88.0598 20.1127 88.4611 19.926C88.8718 19.73 89.3198 19.632 89.8051 19.632ZM94.259 23.594C94.259 22.81 94.413 22.1147 94.721 21.508C95.0383 20.9013 95.4677 20.4347 96.009 20.108C96.5503 19.7813 97.1523 19.618 97.815 19.618C98.319 19.618 98.7997 19.73 99.257 19.954C99.7143 20.1687 100.078 20.458 100.349 20.822V17.14H102.337V27.5H100.349V26.352C100.106 26.7347 99.7657 27.0427 99.327 27.276C98.8883 27.5093 98.3797 27.626 97.801 27.626C97.1477 27.626 96.5503 27.458 96.009 27.122C95.4677 26.786 95.0383 26.3147 94.721 25.708C94.413 25.092 94.259 24.3873 94.259 23.594ZM100.363 23.622C100.363 23.146 100.27 22.74 100.083 22.404C99.8963 22.0587 99.6443 21.7973 99.327 21.62C99.0097 21.4333 98.669 21.34 98.305 21.34C97.941 21.34 97.605 21.4287 97.297 21.606C96.989 21.7833 96.737 22.0447 96.541 22.39C96.3543 22.726 96.261 23.1273 96.261 23.594C96.261 24.0607 96.3543 24.4713 96.541 24.826C96.737 25.1713 96.989 25.4373 97.297 25.624C97.6143 25.8107 97.9503 25.904 98.305 25.904C98.669 25.904 99.0097 25.8153 99.327 25.638C99.6443 25.4513 99.8963 25.19 100.083 24.854C100.27 24.5087 100.363 24.098 100.363 23.622ZM111.573 19.744V27.5H109.599V26.52C109.347 26.856 109.016 27.122 108.605 27.318C108.204 27.5047 107.765 27.598 107.289 27.598C106.683 27.598 106.146 27.472 105.679 27.22C105.213 26.9587 104.844 26.5807 104.573 26.086C104.312 25.582 104.181 24.9847 104.181 24.294V19.744H106.141V24.014C106.141 24.63 106.295 25.106 106.603 25.442C106.911 25.7687 107.331 25.932 107.863 25.932C108.405 25.932 108.829 25.7687 109.137 25.442C109.445 25.106 109.599 24.63 109.599 24.014V19.744H111.573ZM117.875 19.632C118.463 19.632 118.986 19.7627 119.443 20.024C119.9 20.276 120.255 20.654 120.507 21.158C120.768 21.6527 120.899 22.25 120.899 22.95V27.5H118.939V23.216C118.939 22.6 118.785 22.1287 118.477 21.802C118.169 21.466 117.749 21.298 117.217 21.298C116.676 21.298 116.246 21.466 115.929 21.802C115.621 22.1287 115.467 22.6 115.467 23.216V27.5H113.507V17.14H115.467V20.71C115.719 20.374 116.055 20.1127 116.475 19.926C116.895 19.73 117.362 19.632 117.875 19.632ZM128.059 25.946H131.279V27.5H126.099V17.728H128.059V25.946ZM132.021 23.594C132.021 22.81 132.175 22.1147 132.483 21.508C132.8 20.9013 133.225 20.4347 133.757 20.108C134.298 19.7813 134.9 19.618 135.563 19.618C136.141 19.618 136.645 19.7347 137.075 19.968C137.513 20.2013 137.863 20.4953 138.125 20.85V19.744H140.099V27.5H138.125V26.366C137.873 26.73 137.523 27.0333 137.075 27.276C136.636 27.5093 136.127 27.626 135.549 27.626C134.895 27.626 134.298 27.458 133.757 27.122C133.225 26.786 132.8 26.3147 132.483 25.708C132.175 25.092 132.021 24.3873 132.021 23.594ZM138.125 23.622C138.125 23.146 138.031 22.74 137.845 22.404C137.658 22.0587 137.406 21.7973 137.089 21.62C136.771 21.4333 136.431 21.34 136.067 21.34C135.703 21.34 135.367 21.4287 135.059 21.606C134.751 21.7833 134.499 22.0447 134.303 22.39C134.116 22.726 134.023 23.1273 134.023 23.594C134.023 24.0607 134.116 24.4713 134.303 24.826C134.499 25.1713 134.751 25.4373 135.059 25.624C135.376 25.8107 135.712 25.904 136.067 25.904C136.431 25.904 136.771 25.8153 137.089 25.638C137.406 25.4513 137.658 25.19 137.845 24.854C138.031 24.5087 138.125 24.098 138.125 23.622ZM143.973 20.864C144.225 20.5093 144.57 20.2153 145.009 19.982C145.457 19.7393 145.966 19.618 146.535 19.618C147.198 19.618 147.795 19.7813 148.327 20.108C148.868 20.4347 149.293 20.9013 149.601 21.508C149.918 22.1053 150.077 22.8007 150.077 23.594C150.077 24.3873 149.918 25.092 149.601 25.708C149.293 26.3147 148.868 26.786 148.327 27.122C147.795 27.458 147.198 27.626 146.535 27.626C145.966 27.626 145.462 27.5093 145.023 27.276C144.594 27.0427 144.244 26.7487 143.973 26.394V31.196H142.013V19.744H143.973V20.864ZM148.075 23.594C148.075 23.1273 147.977 22.726 147.781 22.39C147.594 22.0447 147.342 21.7833 147.025 21.606C146.717 21.4287 146.381 21.34 146.017 21.34C145.662 21.34 145.326 21.4333 145.009 21.62C144.701 21.7973 144.449 22.0587 144.253 22.404C144.066 22.7493 143.973 23.1553 143.973 23.622C143.973 24.0887 144.066 24.4947 144.253 24.84C144.449 25.1853 144.701 25.4513 145.009 25.638C145.326 25.8153 145.662 25.904 146.017 25.904C146.381 25.904 146.717 25.8107 147.025 25.624C147.342 25.4373 147.594 25.1713 147.781 24.826C147.977 24.4807 148.075 24.07 148.075 23.594ZM154.945 27.626C154.199 27.626 153.527 27.4627 152.929 27.136C152.332 26.8 151.861 26.3287 151.515 25.722C151.179 25.1153 151.011 24.4153 151.011 23.622C151.011 22.8287 151.184 22.1287 151.529 21.522C151.884 20.9153 152.365 20.4487 152.971 20.122C153.578 19.786 154.255 19.618 155.001 19.618C155.748 19.618 156.425 19.786 157.031 20.122C157.638 20.4487 158.114 20.9153 158.459 21.522C158.814 22.1287 158.991 22.8287 158.991 23.622C158.991 24.4153 158.809 25.1153 158.445 25.722C158.091 26.3287 157.605 26.8 156.989 27.136C156.383 27.4627 155.701 27.626 154.945 27.626ZM154.945 25.918C155.3 25.918 155.631 25.834 155.939 25.666C156.257 25.4887 156.509 25.2273 156.695 24.882C156.882 24.5367 156.975 24.1167 156.975 23.622C156.975 22.8847 156.779 22.32 156.387 21.928C156.005 21.5267 155.533 21.326 154.973 21.326C154.413 21.326 153.942 21.5267 153.559 21.928C153.186 22.32 152.999 22.8847 152.999 23.622C152.999 24.3593 153.181 24.9287 153.545 25.33C153.919 25.722 154.385 25.918 154.945 25.918ZM162.389 20.948C162.641 20.5373 162.968 20.2153 163.369 19.982C163.78 19.7487 164.246 19.632 164.769 19.632V21.69H164.251C163.635 21.69 163.168 21.8347 162.851 22.124C162.543 22.4133 162.389 22.9173 162.389 23.636V27.5H160.429V19.744H162.389V20.948ZM165.585 23.594C165.585 22.81 165.739 22.1147 166.047 21.508C166.365 20.9013 166.789 20.4347 167.321 20.108C167.863 19.7813 168.465 19.618 169.127 19.618C169.706 19.618 170.21 19.7347 170.639 19.968C171.078 20.2013 171.428 20.4953 171.689 20.85V19.744H173.663V27.5H171.689V26.366C171.437 26.73 171.087 27.0333 170.639 27.276C170.201 27.5093 169.692 27.626 169.113 27.626C168.46 27.626 167.863 27.458 167.321 27.122C166.789 26.786 166.365 26.3147 166.047 25.708C165.739 25.092 165.585 24.3873 165.585 23.594ZM171.689 23.622C171.689 23.146 171.596 22.74 171.409 22.404C171.223 22.0587 170.971 21.7973 170.653 21.62C170.336 21.4333 169.995 21.34 169.631 21.34C169.267 21.34 168.931 21.4287 168.623 21.606C168.315 21.7833 168.063 22.0447 167.867 22.39C167.681 22.726 167.587 23.1273 167.587 23.594C167.587 24.0607 167.681 24.4713 167.867 24.826C168.063 25.1713 168.315 25.4373 168.623 25.624C168.941 25.8107 169.277 25.904 169.631 25.904C169.995 25.904 170.336 25.8153 170.653 25.638C170.971 25.4513 171.223 25.19 171.409 24.854C171.596 24.5087 171.689 24.098 171.689 23.622ZM179.875 19.632C180.799 19.632 181.546 19.926 182.115 20.514C182.685 21.0927 182.969 21.9047 182.969 22.95V27.5H181.009V23.216C181.009 22.6 180.855 22.1287 180.547 21.802C180.239 21.466 179.819 21.298 179.287 21.298C178.746 21.298 178.317 21.466 177.999 21.802C177.691 22.1287 177.537 22.6 177.537 23.216V27.5H175.577V19.744H177.537V20.71C177.799 20.374 178.13 20.1127 178.531 19.926C178.942 19.73 179.39 19.632 179.875 19.632ZM87.1117 45.946H90.3317V47.5H85.1517V37.728H87.1117V45.946ZM98.7875 43.454C98.7875 43.734 98.7688 43.986 98.7315 44.21H93.0615C93.1081 44.77 93.3041 45.2087 93.6495 45.526C93.9948 45.8433 94.4195 46.002 94.9235 46.002C95.6515 46.002 96.1695 45.6893 96.4775 45.064H98.5915C98.3675 45.8107 97.9381 46.4267 97.3035 46.912C96.6688 47.388 95.8895 47.626 94.9655 47.626C94.2188 47.626 93.5468 47.4627 92.9495 47.136C92.3615 46.8 91.8995 46.3287 91.5635 45.722C91.2368 45.1153 91.0735 44.4153 91.0735 43.622C91.0735 42.8193 91.2368 42.1147 91.5635 41.508C91.8901 40.9013 92.3475 40.4347 92.9355 40.108C93.5235 39.7813 94.2001 39.618 94.9655 39.618C95.7028 39.618 96.3608 39.7767 96.9395 40.094C97.5275 40.4113 97.9801 40.864 98.2975 41.452C98.6241 42.0307 98.7875 42.698 98.7875 43.454ZM96.7575 42.894C96.7481 42.39 96.5661 41.9887 96.2115 41.69C95.8568 41.382 95.4228 41.228 94.9095 41.228C94.4241 41.228 94.0135 41.3773 93.6775 41.676C93.3508 41.9653 93.1501 42.3713 93.0755 42.894H96.7575ZM104.516 39.632C105.44 39.632 106.187 39.926 106.756 40.514C107.325 41.0927 107.61 41.9047 107.61 42.95V47.5H105.65V43.216C105.65 42.6 105.496 42.1287 105.188 41.802C104.88 41.466 104.46 41.298 103.928 41.298C103.387 41.298 102.957 41.466 102.64 41.802C102.332 42.1287 102.178 42.6 102.178 43.216V47.5H100.218V39.744H102.178V40.71C102.439 40.374 102.771 40.1127 103.172 39.926C103.583 39.73 104.031 39.632 104.516 39.632ZM112.512 39.618C113.091 39.618 113.599 39.7347 114.038 39.968C114.477 40.192 114.822 40.486 115.074 40.85V39.744H117.048V47.556C117.048 48.2747 116.903 48.914 116.614 49.474C116.325 50.0433 115.891 50.4913 115.312 50.818C114.733 51.154 114.033 51.322 113.212 51.322C112.111 51.322 111.205 51.0653 110.496 50.552C109.796 50.0387 109.399 49.3387 109.306 48.452H111.252C111.355 48.8067 111.574 49.0867 111.91 49.292C112.255 49.5067 112.671 49.614 113.156 49.614C113.725 49.614 114.187 49.4413 114.542 49.096C114.897 48.76 115.074 48.2467 115.074 47.556V46.352C114.822 46.716 114.472 47.0193 114.024 47.262C113.585 47.5047 113.081 47.626 112.512 47.626C111.859 47.626 111.261 47.458 110.72 47.122C110.179 46.786 109.749 46.3147 109.432 45.708C109.124 45.092 108.97 44.3873 108.97 43.594C108.97 42.81 109.124 42.1147 109.432 41.508C109.749 40.9013 110.174 40.4347 110.706 40.108C111.247 39.7813 111.849 39.618 112.512 39.618ZM115.074 43.622C115.074 43.146 114.981 42.74 114.794 42.404C114.607 42.0587 114.355 41.7973 114.038 41.62C113.721 41.4333 113.38 41.34 113.016 41.34C112.652 41.34 112.316 41.4287 112.008 41.606C111.7 41.7833 111.448 42.0447 111.252 42.39C111.065 42.726 110.972 43.1273 110.972 43.594C110.972 44.0607 111.065 44.4713 111.252 44.826C111.448 45.1713 111.7 45.4373 112.008 45.624C112.325 45.8107 112.661 45.904 113.016 45.904C113.38 45.904 113.721 45.8153 114.038 45.638C114.355 45.4513 114.607 45.19 114.794 44.854C114.981 44.5087 115.074 44.098 115.074 43.622ZM123.554 47.5L120.922 44.196V47.5H118.962V37.14H120.922V43.034L123.526 39.744H126.074L122.658 43.636L126.102 47.5H123.554ZM126.634 43.594C126.634 42.81 126.788 42.1147 127.096 41.508C127.413 40.9013 127.838 40.4347 128.37 40.108C128.911 39.7813 129.513 39.618 130.176 39.618C130.755 39.618 131.259 39.7347 131.688 39.968C132.127 40.2013 132.477 40.4953 132.738 40.85V39.744H134.712V47.5H132.738V46.366C132.486 46.73 132.136 47.0333 131.688 47.276C131.249 47.5093 130.741 47.626 130.162 47.626C129.509 47.626 128.911 47.458 128.37 47.122C127.838 46.786 127.413 46.3147 127.096 45.708C126.788 45.092 126.634 44.3873 126.634 43.594ZM132.738 43.622C132.738 43.146 132.645 42.74 132.458 42.404C132.271 42.0587 132.019 41.7973 131.702 41.62C131.385 41.4333 131.044 41.34 130.68 41.34C130.316 41.34 129.98 41.4287 129.672 41.606C129.364 41.7833 129.112 42.0447 128.916 42.39C128.729 42.726 128.636 43.1273 128.636 43.594C128.636 44.0607 128.729 44.4713 128.916 44.826C129.112 45.1713 129.364 45.4373 129.672 45.624C129.989 45.8107 130.325 45.904 130.68 45.904C131.044 45.904 131.385 45.8153 131.702 45.638C132.019 45.4513 132.271 45.19 132.458 44.854C132.645 44.5087 132.738 44.098 132.738 43.622ZM138.586 40.864C138.838 40.5093 139.184 40.2153 139.622 39.982C140.07 39.7393 140.579 39.618 141.148 39.618C141.811 39.618 142.408 39.7813 142.94 40.108C143.482 40.4347 143.906 40.9013 144.214 41.508C144.532 42.1053 144.69 42.8007 144.69 43.594C144.69 44.3873 144.532 45.092 144.214 45.708C143.906 46.3147 143.482 46.786 142.94 47.122C142.408 47.458 141.811 47.626 141.148 47.626C140.579 47.626 140.075 47.5093 139.636 47.276C139.207 47.0427 138.857 46.7487 138.586 46.394V51.196H136.626V39.744H138.586V40.864ZM142.688 43.594C142.688 43.1273 142.59 42.726 142.394 42.39C142.208 42.0447 141.956 41.7833 141.638 41.606C141.33 41.4287 140.994 41.34 140.63 41.34C140.276 41.34 139.94 41.4333 139.622 41.62C139.314 41.7973 139.062 42.0587 138.866 42.404C138.68 42.7493 138.586 43.1553 138.586 43.622C138.586 44.0887 138.68 44.4947 138.866 44.84C139.062 45.1853 139.314 45.4513 139.622 45.638C139.94 45.8153 140.276 45.904 140.63 45.904C140.994 45.904 141.33 45.8107 141.638 45.624C141.956 45.4373 142.208 45.1713 142.394 44.826C142.59 44.4807 142.688 44.07 142.688 43.594ZM156.576 40.752C156.576 41.2747 156.45 41.7647 156.198 42.222C155.956 42.6793 155.568 43.048 155.036 43.328C154.514 43.608 153.851 43.748 153.048 43.748H151.41V47.5H149.45V37.728H153.048C153.804 37.728 154.448 37.8587 154.98 38.12C155.512 38.3813 155.909 38.7407 156.17 39.198C156.441 39.6553 156.576 40.1733 156.576 40.752ZM152.964 42.166C153.506 42.166 153.907 42.0447 154.168 41.802C154.43 41.55 154.56 41.2 154.56 40.752C154.56 39.8 154.028 39.324 152.964 39.324H151.41V42.166H152.964ZM161.384 37.728C162.411 37.728 163.311 37.9287 164.086 38.33C164.87 38.7313 165.472 39.3053 165.892 40.052C166.321 40.7893 166.536 41.648 166.536 42.628C166.536 43.608 166.321 44.4667 165.892 45.204C165.472 45.932 164.87 46.4967 164.086 46.898C163.311 47.2993 162.411 47.5 161.384 47.5H157.968V37.728H161.384ZM161.314 45.834C162.341 45.834 163.134 45.554 163.694 44.994C164.254 44.434 164.534 43.6453 164.534 42.628C164.534 41.6107 164.254 40.8173 163.694 40.248C163.134 39.6693 162.341 39.38 161.314 39.38H159.928V45.834H161.314ZM174.037 37.728V39.31H169.963V41.816H173.085V43.37H169.963V47.5H168.003V37.728H174.037Z" fill="white"/>
<defs>
<linearGradient id="paint0_linear_329_458" x1="0" y1="33" x2="237.343" y2="33" gradientUnits="userSpaceOnUse">
<stop stop-color="#004AC6"/>
<stop offset="1" stop-color="#003EA8"/>
</linearGradient>
</defs>
</svg>
